<?xml version="1.0" encoding="UTF-8"?>
<svg width="90px" height="74px" viewBox="0 0 90 74" version="1.1" xmlns="http://www.w3.org/2000/svg" xmlns:xlink="http://www.w3.org/1999/xlink">
    <!-- Generator: Sketch 53.2 (72643) - https://sketchapp.com -->
    <title>Untitled 2</title>
    <desc>Created with Sketch.</desc>
    <g id="Page-1" stroke="none" stroke-width="1" fill="none" fill-rule="evenodd">
        <g id="delivery" fill="#D94848" fill-rule="nonzero">
            <path d="M84.4,43.2 C84.4,43.2 84.4,43.1 84.4,43.2 L78.8,30 C80.1,29.3 81,28 81,26.5 C81,24.3 79.2,22.5 77,22.5 L60,22.5 C57.8,22.5 56,24.3 56,26.5 L56,49.1 C55.4,48.7 54.7,48.5 54,48.5 L48,48.5 L48,27.5 L50,27.5 C50.5,27.5 51,27 51,26.5 L51,14.5 C51,14 50.5,13.5 50,13.5 L36.6,13.5 C38.6,12.3 40,10 40,7.5 C40,3.6 36.9,0.5 33,0.5 C29.5,0.5 26.6,3.1 26.1,6.5 L25.9,6.5 C25.4,3.1 22.5,0.5 19,0.5 C15.1,0.5 12,3.6 12,7.5 C12,10 13.4,12.3 15.4,13.5 L2,13.5 C1.5,13.5 1,14 1,14.5 L1,26.5 C1,27 1.5,27.5 2,27.5 L4,27.5 L4,48.5 C1.8,48.5 0,50.3 0,52.5 L0,60.5 C0,62.7 1.8,64.5 4,64.5 L12,64.5 C12.5,69.5 16.8,73.5 22,73.5 C27.2,73.5 31.5,69.5 32,64.5 L65,64.5 C65.5,69.5 69.8,73.5 75,73.5 C80.2,73.5 84.5,69.5 85,64.5 L85,64.5 C87.8,64.5 90,62.3 90,59.5 L90,51.5 C90,47.8 87.7,44.5 84.4,43.2 Z M49,15.5 L49,25.5 L33,25.5 L33,15.5 L49,15.5 Z M46,27.5 L46,48.5 L33,48.5 L33,27.5 L46,27.5 Z M33,2.5 C35.8,2.5 38,4.7 38,7.5 C38,10.3 35.8,12.5 33,12.5 C33,12.5 33,12.5 32.9,12.5 C32.5,9.8 30.6,7.6 28.1,6.8 C28.4,4.4 30.5,2.5 33,2.5 Z M26,8.5 C28.8,8.5 31,10.7 31,13.5 L21,13.5 C21,10.7 23.2,8.5 26,8.5 Z M21,25.5 L21,15.5 L31,15.5 L31,25.5 L21,25.5 Z M31,27.5 L31,48.5 L21,48.5 L21,27.5 L31,27.5 Z M14,7.5 C14,4.7 16.2,2.5 19,2.5 C21.5,2.5 23.6,4.4 23.9,6.8 C21.4,7.6 19.4,9.8 19.1,12.5 C19.1,12.5 19.1,12.5 19,12.5 C16.2,12.5 14,10.3 14,7.5 Z M3,25.5 L3,15.5 L19,15.5 L19,25.5 L3,25.5 Z M19,27.5 L19,48.5 L6,48.5 L6,27.5 L19,27.5 Z M22,71.5 C17.6,71.5 14,67.9 14,63.5 C14,59.1 17.6,55.5 22,55.5 C26.4,55.5 30,59.1 30,63.5 C30,67.9 26.4,71.5 22,71.5 Z M56,62.5 L32,62.5 C31.5,57.5 27.2,53.5 22,53.5 C16.8,53.5 12.5,57.5 12,62.5 L4,62.5 C2.9,62.5 2,61.6 2,60.5 L2,52.5 C2,51.4 2.9,50.5 4,50.5 L54,50.5 C55.1,50.5 56,51.4 56,52.5 L56,62.5 Z M58,26.5 C58,25.4 58.9,24.5 60,24.5 L77,24.5 C78.1,24.5 79,25.4 79,26.5 C79,27.6 78.1,28.5 77,28.5 L58,28.5 L58,26.5 Z M58,30.5 L76.8,30.5 L82,42.6 C81.7,42.6 81.3,42.5 81,42.5 L58.9,42.5 L65.7,35.7 C66.1,35.3 66.1,34.7 65.7,34.3 C65.3,33.9 64.7,33.9 64.3,34.3 L58,40.6 L58,30.5 Z M75,71.5 C70.6,71.5 67,67.9 67,63.5 C67,59.1 70.6,55.5 75,55.5 C79.4,55.5 83,59.1 83,63.5 C83,67.9 79.4,71.5 75,71.5 Z M88,59.5 C88,61.1 86.7,62.5 85,62.5 L85,62.5 C84.5,57.5 80.2,53.5 75,53.5 C69.8,53.5 65.5,57.5 65,62.5 L58,62.5 L58,44.5 L81,44.5 C84,44.5 86.5,46.4 87.5,49 L81,49 C80.5,49 80,49.5 80,50 C80,50.5 80.5,51 81,51 L88,51 C88,51.2 88,51.3 88,51.5 L88,59.5 Z M75.9,49.6 C75.9,49.7 76,49.8 76,50 C76,50.2 76,50.3 75.9,50.4 C75.8,50.5 75.8,50.6 75.7,50.7 C75.6,50.8 75.5,50.9 75.4,50.9 C75.3,50.9 75.1,51 75,51 C74.7,51 74.5,50.9 74.3,50.7 C74.2,50.6 74.1,50.5 74.1,50.4 C74,50.3 74,50.1 74,50 C74,49.9 74,49.7 74.1,49.6 C74.1,49.5 74.2,49.4 74.3,49.3 C74.7,48.9 75.4,48.9 75.7,49.3 C75.8,49.4 75.9,49.5 75.9,49.6 Z M75,60.5 C73.3,60.5 72,61.8 72,63.5 C72,65.1 73.3,66.5 75,66.5 C76.7,66.5 78,65.1 78,63.5 C78,61.8 76.7,60.5 75,60.5 Z M75,64.5 C74.5,64.5 74,64 74,63.5 C74,63 74.5,62.5 75,62.5 C75.5,62.5 76,63 76,63.5 C76,64 75.5,64.5 75,64.5 Z M22,60.5 C20.3,60.5 19,61.8 19,63.5 C19,65.1 20.3,66.5 22,66.5 C23.7,66.5 25,65.1 25,63.5 C25,61.8 23.7,60.5 22,60.5 Z M22,64.5 C21.5,64.5 21,64 21,63.5 C21,63 21.5,62.5 22,62.5 C22.5,62.5 23,63 23,63.5 C23,64 22.5,64.5 22,64.5 Z" id="Shape"></path>
        </g>
    </g>
</svg>