<?xml version="1.0" encoding="UTF-8"?>
<svg width="96px" height="88px" viewBox="0 0 96 88" version="1.1" xmlns="http://www.w3.org/2000/svg" xmlns:xlink="http://www.w3.org/1999/xlink">
    <!-- Generator: Sketch 53.2 (72643) - https://sketchapp.com -->
    <title>Untitled 2</title>
    <desc>Created with Sketch.</desc>
    <g id="Page-1" stroke="none" stroke-width="1" fill="none" fill-rule="evenodd">
        <g id="noun_Smile_2281875" transform="translate(4.000000, 3.000000)" fill="#D979AE" fill-rule="nonzero">
            <path d="M78.1721527,38.6241955 C77.6527754,38.6251263 77.1344908,38.6716935 76.6233132,38.7633565 C72.6627092,24.2855214 59.3920479,13.600672 43.6500514,13.5310915 C41.9224996,13.2527696 40.7923573,12.5739354 40.1983518,11.4487678 C38.7754619,8.76737297 40.4774833,4.00365439 41.2536051,2.3931204 C41.6313799,1.5550016 41.2715469,0.569321477 40.4418329,0.169456107 C39.612119,-0.230409262 38.6139377,0.100800905 38.1899665,0.916656141 C37.58063,2.23748966 37.099046,3.61326878 36.7517584,5.02529977 C35.9518083,8.28030947 36.0981821,10.9650985 37.1857738,13.0270572 C37.2538547,13.1543386 37.3236376,13.2765287 37.3968245,13.3970218 C33.866832,12.6995197 31.334224,11.253603 30.0015412,9.15430843 C29.2852514,8.042106 28.9178468,6.74219315 28.9462879,5.42072066 L28.9462879,5.42072066 C28.9462879,5.37320227 28.9462879,5.32738097 28.9462879,5.28155966 C28.9376221,4.39396259 28.244446,3.66296605 27.3561477,3.60465972 C26.4678495,3.5463534 25.68455,4.18043669 25.5592652,5.05924148 L25.5592652,5.05924148 L25.5592652,5.05924148 C25.5497494,5.13070541 25.5446338,5.20268353 25.543947,5.27477132 L25.543947,5.27477132 C25.481684,7.72574841 26.3084266,10.1168309 27.8723124,12.008806 C29.0211769,13.4072043 30.5291679,14.5289777 32.3775632,15.3741262 C21.619357,19.0744265 13.385243,27.8295116 10.3721277,38.771842 C6.9229601,38.1545131 3.4346331,39.6329932 1.48693345,42.5377109 C-0.460766196,45.4424286 -0.497881444,49.2216456 1.39239639,52.1638373 C3.28267422,55.1060291 6.74129512,56.6523391 10.2019255,56.1024776 C13.9463728,70.963854 27.4553171,82 43.5036775,82 C59.5520379,82 73.0609823,70.9689452 76.8037275,56.1024776 C80.0787068,56.6206525 83.3682562,55.2623829 85.317041,52.5872926 C87.2658257,49.9122023 87.5440938,46.3729408 86.0371953,43.4277272 C84.5302968,40.4825137 81.4932127,38.6297049 78.1772588,38.632681 L78.1721527,38.6241955 Z M9.53473313,52.7609165 C9.29886832,52.7921139 9.06121871,52.8079869 8.82328815,52.8084349 C5.83502657,52.8084349 3.41256192,50.3929957 3.41256192,47.4134006 C3.41256192,44.4338054 5.83502657,42.0183662 8.82328815,42.0183662 C9.09730107,42.0189779 9.37090899,42.0393965 9.64196048,42.0794613 C9.04707546,45.6125216 9.01089448,49.2166908 9.53473313,52.7609165 L9.53473313,52.7609165 Z M43.4985714,78.5973439 C26.4443164,78.5973439 12.5711394,64.7644012 12.5711394,47.7613031 C12.5711394,30.7582049 26.4426144,16.9252622 43.4951674,16.9235652 L43.5036775,16.9235652 C60.5545285,16.9235652 74.4243014,30.7582049 74.4243014,47.7613031 C74.4243014,64.7644012 60.5511245,78.5973439 43.4985714,78.5973439 Z M78.1721527,52.8016466 C77.934786,52.8012451 77.6976995,52.7853718 77.4624098,52.7541282 C77.9844825,49.2097323 77.9477291,45.6057505 77.3534804,42.072673 C77.6245319,42.0326081 77.8981398,42.0121896 78.1721527,42.0115779 C81.1604143,42.0115779 83.5828789,44.427017 83.5828789,47.4066122 C83.5828789,50.3862074 81.1604143,52.8016466 78.1721527,52.8016466 Z" id="Shape"></path>
            <path d="M54.5,38 C50.9117598,38.0037621 48.0038855,40.8192623 48,44.2935154 C48,45.2359808 48.789086,46 49.7624729,46 C50.7358598,46 51.5249458,45.2359808 51.5249458,44.2935154 C51.5249458,42.7026337 52.8569229,41.4129693 54.5,41.4129693 C56.1430771,41.4129693 57.4750542,42.7026337 57.4750542,44.2935154 C57.4750542,45.2359808 58.2641402,46 59.2375271,46 C60.210914,46 61,45.2359808 61,44.2935154 C60.9961145,40.8192623 58.0882402,38.0037621 54.5,38 Z" id="Path"></path>
            <path d="M30.5258287,44.3153379 C30.4995402,43.2831804 31.0605943,42.3184897 31.991619,41.7950205 C32.9226437,41.2715514 34.0773563,41.2715514 35.008381,41.7950205 C35.9394057,42.3184897 36.5004598,43.2831804 36.4741713,44.3153379 C36.4741713,45.2457511 37.2632568,46 38.2366431,46 C39.2100295,46 39.999115,45.2457511 39.999115,44.3153379 C40.037773,42.0715534 38.807573,39.982216 36.7808471,38.8495211 C34.7541212,37.7168263 32.2458788,37.7168263 30.2191529,38.8495211 C28.192427,39.982216 26.962227,42.0715534 27.000885,44.3153379 C27.0008851,45.2457511 27.7899706,45.9999999 28.7633569,45.9999999 C29.7367432,45.9999999 30.5258287,45.2457511 30.5258287,44.3153379 L30.5258287,44.3153379 Z" id="Path"></path>
            <path d="M58.8361881,53.1937709 C58.4180082,53.0495941 57.9636144,53.0897863 57.5730392,53.3054994 C57.1824639,53.5212124 56.8877264,53.8947623 56.7537116,54.3439139 C56.7305361,54.425686 54.2160037,62.4446893 44.0072337,62.4446893 C33.88951,62.4446893 31.3567683,54.6656695 31.2607559,54.3439139 C31.1101999,53.7014087 30.6394052,53.2021271 30.0392551,53.0485025 C29.439105,52.894878 28.8091965,53.112405 28.4049256,53.6128874 C28.0006547,54.1133697 27.8891115,54.8137507 28.1155211,55.4300613 C28.1486288,55.5420536 28.9597683,58.196093 31.3484914,60.8021358 C33.5220141,63.173528 37.48501,66 44.0188214,66 C50.5526329,66 54.5139733,63.173528 56.6891515,60.8021358 C59.0762191,58.196093 59.8873586,55.5420536 59.9221218,55.4300613 C60.0557582,54.9788839 60.0162723,54.4890995 59.8124183,54.0692979 C59.6085644,53.6494963 59.2571863,53.3343648 58.8361881,53.1937709 Z" id="Path" fill-opacity="0.624426355"></path>
        </g>
    </g>
</svg>