<?xml version="1.0" encoding="UTF-8"?>
<svg width="96px" height="88px" viewBox="0 0 96 88" version="1.1" xmlns="http://www.w3.org/2000/svg" xmlns:xlink="http://www.w3.org/1999/xlink">
    <!-- Generator: Sketch 53.2 (72643) - https://sketchapp.com -->
    <title>Untitled 2</title>
    <desc>Created with Sketch.</desc>
    <g id="Page-1" stroke="none" stroke-width="1" fill="none" fill-rule="evenodd">
        <g id="noun_baby-clothes_1657039" transform="translate(3.000000, 3.000000)" fill-rule="nonzero">
            <g id="Group">
                <path d="M88.635,9.663 L64.257,0.923 C64.048,0.848 63.83,0.815 63.613,0.822 C63.599,0.821 63.586,0.82 63.572,0.82 L57.581,0.82 L32.418,0.82 L26.427,0.82 C26.414,0.82 26.402,0.821 26.389,0.822 C26.174,0.816 25.956,0.847 25.747,0.923 L1.364,9.663 C0.55,9.955 0.072,10.797 0.238,11.645 L4.082,31.223 C4.172,31.684 4.445,32.09 4.837,32.348 C5.231,32.606 5.711,32.695 6.17,32.594 L14.561,30.761 C15.177,32.893 15.612,34.898 15.92,36.317 C16.042,36.882 16.14,37.329 16.221,37.659 C16.25,37.778 16.297,37.966 16.377,38.173 L19.279,79.555 C19.343,80.471 20.105,81.18 21.023,81.18 L39.142,81.18 C39.908,81.18 40.585,80.682 40.812,79.95 L44.999,66.473 L49.183,79.95 C49.41,80.682 50.087,81.18 50.853,81.18 L68.972,81.18 C69.89,81.18 70.652,80.471 70.716,79.555 L73.619,38.174 C73.699,37.966 73.745,37.778 73.776,37.659 C73.858,37.328 73.954,36.881 74.076,36.316 C74.385,34.899 74.82,32.893 75.435,30.762 L83.827,32.595 C84.285,32.696 84.766,32.607 85.16,32.349 C85.552,32.091 85.826,31.685 85.915,31.224 L89.759,11.646 C89.927,10.797 89.449,9.955 88.635,9.663 Z M54.683,4.318 C52.418,7.751 48.895,9.732 44.862,9.732 C40.777,9.732 37.18,7.67 35.149,4.318 L54.683,4.318 Z M44.862,13.229 C49.099,13.229 52.981,11.478 55.847,8.44 L55.873,18.939 L34.127,18.939 L34.152,8.733 C36.875,11.567 40.67,13.229 44.862,13.229 Z M15.764,26.96 C15.64,26.96 15.515,26.974 15.39,27.001 L7.17,28.797 L3.96,12.447 L24.438,5.107 C24.327,6.378 24.169,8.096 23.931,10.313 C22.85,18.56 20.752,27.442 18.696,32.739 C18.36,31.345 17.941,29.754 17.425,28.169 C17.188,27.437 16.507,26.96 15.764,26.96 Z M67.344,77.682 L52.143,77.682 L46.672,60.06 C46.445,59.329 45.769,58.831 45.003,58.829 L45.003,58.829 C44.237,58.829 43.561,59.329 43.334,60.059 L37.858,77.683 L22.656,77.683 L19.9,38.387 C20.247,37.912 20.581,37.252 20.948,36.348 C23.504,31.316 26.572,19.153 27.406,10.721 C27.713,8.385 27.919,6.241 28.02,4.319 L30.666,4.319 L30.625,20.686 C30.624,21.15 30.808,21.596 31.136,21.925 C31.465,22.254 31.91,22.439 32.374,22.439 L57.625,22.439 C58.089,22.439 58.536,22.254 58.863,21.925 C59.192,21.596 59.375,21.151 59.374,20.686 L59.333,4.319 L61.982,4.319 C61.983,4.334 61.984,4.348 61.985,4.363 C62.088,6.29 62.291,8.42 62.594,10.721 C63.428,19.155 66.496,31.319 69.053,36.349 C69.392,37.18 69.721,37.866 70.1,38.382 L67.344,77.682 Z M82.83,28.797 L74.609,27.001 C73.731,26.81 72.851,27.314 72.573,28.169 C72.058,29.753 71.638,31.345 71.302,32.739 C69.245,27.443 67.148,18.56 66.067,10.313 C65.829,8.095 65.671,6.377 65.56,5.106 L86.039,12.447 L82.83,28.797 Z" id="Shape" fill="#D979AE"></path>
                <path d="M45.002,26.723 C37.129,26.723 30.725,33.127 30.725,41 C30.725,48.873 37.13,55.277 45.002,55.277 C52.872,55.277 59.274,48.873 59.274,41 C59.274,33.127 52.873,26.723 45.002,26.723 Z M45.002,51.781 C39.058,51.781 34.222,46.945 34.222,41 C34.222,35.056 39.058,30.219 45.002,30.219 C50.944,30.219 55.777,35.056 55.777,41 C55.778,46.945 50.944,51.781 45.002,51.781 Z" id="Shape" fill="#F8E71C"></path>
                <path d="M49.697,44.272 C48.866,43.78 47.793,44.055 47.302,44.886 C46.586,46.097 45.376,46.124 44.889,46.079 C44.027,45.999 43.301,45.545 43.083,44.949 C42.751,44.041 41.748,43.575 40.841,43.907 C39.933,44.238 39.466,45.241 39.798,46.149 C40.48,48.017 42.353,49.357 44.568,49.562 C44.765,49.58 44.959,49.588 45.152,49.588 C47.285,49.588 49.226,48.504 50.312,46.667 C50.803,45.835 50.528,44.764 49.697,44.272 Z" id="Path" fill="#7ED321"></path>
                <circle id="Oval" fill="#7ED321" cx="41.386" cy="36.967" r="2.208"></circle>
                <path d="M48.355,34.864 C47.141,34.864 46.149,35.851 46.149,37.072 C46.149,38.293 47.141,39.28 48.355,39.28 C49.576,39.28 50.563,38.293 50.563,37.072 C50.563,35.852 49.576,34.864 48.355,34.864 Z" id="Path" fill="#7ED321"></path>
            </g>
        </g>
    </g>
</svg>