<?xml version="1.0" encoding="UTF-8"?>
<svg width="90px" height="84px" viewBox="0 0 90 84" version="1.1" xmlns="http://www.w3.org/2000/svg" xmlns:xlink="http://www.w3.org/1999/xlink">
    <!-- Generator: Sketch 53.2 (72643) - https://sketchapp.com -->
    <title>Untitled 2</title>
    <desc>Created with Sketch.</desc>
    <g id="Page-1" stroke="none" stroke-width="1" fill="none" fill-rule="evenodd">
        <g id="noun_return_1544356" transform="translate(0.000000, 2.000000)" fill-rule="nonzero">
            <path d="M61,39 L41,39 L41,18 L61,18 L61,39 Z M43,37 L59,37 L59,20 L43,20 L43,37 Z" id="Shape" fill="#D94848"></path>
            <path d="M9.9,39.4 L8.8,22.2 C8.7,20.8 9.1,19.5 10,18.5 C10.8,17.6 11.8,17.1 13,17.1 L27,17.1 C28.2,17.1 29.2,17.6 30,18.5 C30.9,19.5 31.3,20.9 31.2,22.3 L30.2,39.5 L28.2,39.4 L29.2,22.2 C29.3,21.3 29,20.5 28.5,19.9 C28.1,19.3 27.6,19 27,19 L13,19 C12.4,19 11.9,19.3 11.5,19.8 C11,20.4 10.7,21.2 10.8,22 L11.9,39.3 L9.9,39.4 Z M19.7,14.6 C15.9,14.6 12.7,11.4 12.7,7.5 C12.7,3.6 15.8,0.4 19.7,0.4 C23.6,0.4 26.7,3.6 26.7,7.5 C26.7,11.4 23.6,14.6 19.7,14.6 Z M19.7,2.5 C17,2.5 14.7,4.8 14.7,7.6 C14.7,10.4 16.9,12.7 19.7,12.7 C22.5,12.7 24.7,10.4 24.7,7.6 C24.7,4.8 22.5,2.5 19.7,2.5 Z M24.9,27.4 L23,59 L21,59 L21,38 L19,38 L19,59 L17,59 L15,27.4 L13,27.5 L15,61 L25,61 L26.9,27.5 L24.9,27.4 Z" id="Shape" fill="#000000"></path>
            <path d="M72.4,68.9 L52.3,68.9 L52.3,66.9 L72.5,66.9 C76.2,66.9 79.5,64.7 81,61.3 L82.8,62.1 C81,66.2 76.9,68.9 72.4,68.9 Z M34.5,66.9 L47.1,66.9 L47.1,68.9 L34.5,68.9 L34.5,66.9 Z" id="Shape" fill="#F2BE22"></path>
            <path d="M72.5,41 L41,41 L41,43 L72.4,43 C80.4,43 87,49.6 87,57.7 C87,65.7 80.5,72 72.5,72 L4.5,72 L10.1,66.5 L8.7,65.1 L0.9,73 L8.8,81.4 L10.2,80 L4.6,74 L72.5,74 C81.7,74 89,66.8 89,57.7 C89,48.6 81.6,41 72.5,41 Z" id="Path" fill="#78BFB8"></path>
        </g>
    </g>
</svg>